<svg xmlns="http://www.w3.org/2000/svg" width="300" height="320" viewBox="0 0 79.375 84.667"><g stroke="#000" stroke-width=".066"><path d="M42.39 8.599V7.541l4.583-2.646v1.058z" fill-opacity=".197" fill-rule="evenodd" stroke-opacity=".913"/><path d="M69.886 21.828l-17.185-9.922-9.165 5.292L60.72 27.12z" fill="#fff" fill-rule="evenodd" stroke-linecap="round" stroke-linejoin="round"/><path d="M58.43 60.193l11.456-6.615v-31.75L58.43 28.443z" fill="#e6e6e6" fill-rule="evenodd" stroke-linecap="round" stroke-linejoin="round"/><path d="M59.117 57.15v1.852l1.146-.661v-1.852z" fill="#1a1a1a" fill-rule="evenodd"/><path d="M42.39 69.453l11.457-6.614V29.766L42.39 36.38z" fill="#535d6c" fill-rule="evenodd" stroke-linecap="round" stroke-linejoin="round"/><path d="M58.43 64.161l11.456-6.614v-3.969L58.43 60.193z" fill="#520" fill-rule="evenodd" stroke-linecap="round" stroke-linejoin="round"/><path d="M71.949 53.446l-2.063-1.19v-1.06l2.063 1.192z" fill-opacity=".212" fill-rule="evenodd"/><path d="M69.887 52.255v1.059L58.43 59.928l1.146.662 11.456-6.615.916-.53z" fill="#fff" fill-rule="evenodd" stroke-linecap="round" stroke-linejoin="round"/><path d="M54.993 67.469l4.582-2.646v-3.969L54.993 63.5z" fill="#520" fill-rule="evenodd" stroke-linecap="round" stroke-linejoin="round"/><path d="M54.076 66.94l.917.529V63.5l-1.146-.661v3.968z" fill="#d45500" fill-rule="evenodd" stroke-linecap="round" stroke-linejoin="round"/><path d="M42.39 73.422l11.457-6.615V62.84L42.39 69.453zm-16.04 6.614v-1.322l11.457-6.615v3.969l-11.456 6.614z" fill="#520" fill-rule="evenodd" stroke-linecap="round" stroke-linejoin="round"/><path d="M26.35 78.714L9.166 68.792v3.968l17.186 9.922zM38.037 76.2l.916.53v-3.97l-1.146-.661v3.969z" fill="#d45500" fill-rule="evenodd" stroke-linecap="round" stroke-linejoin="round"/><path d="M38.953 76.73l4.583-2.647v-3.968l-4.583 2.645z" fill="#520" fill-rule="evenodd" stroke-linecap="round" stroke-linejoin="round"/><g fill-rule="evenodd" stroke-linecap="round" stroke-linejoin="round"><path d="M65.304 24.474l-6.874 3.969v-7.938l6.874-3.969z" fill="#a40"/><path d="M58.43 28.443L41.244 18.52v-7.938l17.186 9.922z" fill="#d45500"/><path d="M58.43 20.505L40.099 9.922l6.874-3.969 18.33 10.583z" fill="#ff7f2a"/></g><g fill="#1a1a1a" fill-rule="evenodd"><path d="M43.994 65.881v1.852l1.146-.661V65.22zm1.146-.661v1.852l1.145-.662v-1.852z"/><path d="M46.285 64.558v1.852l1.146-.661v-1.852z"/></g><path d="M20.622 18.52v3.97l17.185 9.921V72.1l.23.132.916.53V29.103l-1.146-.661z" fill="#939dac" fill-rule="evenodd" stroke-linecap="round" stroke-linejoin="round"/><path d="M59.575 60.59v-1.06l12.374-7.144v1.059z" fill-opacity=".197" fill-rule="evenodd" stroke-opacity=".913"/><path d="M54.076 62.97l.917.53V15.875l-1.146-.661v47.625z" fill="#939dac" fill-rule="evenodd" stroke-linecap="round" stroke-linejoin="round"/><path d="M43.536 69.85l11.457-6.615-1.146-.661-11.457 6.615z" fill="#fff" fill-rule="evenodd" stroke-linecap="round" stroke-linejoin="round"/><path d="M43.536 69.85v-1.058l11.457-6.615v1.058z" fill-opacity=".197" fill-rule="evenodd" stroke-opacity=".913"/><path d="M43.536 70.115v-.265l11.457-6.615v.265z" fill="#e6e6e6" fill-rule="evenodd"/><path d="M26.35 78.714v-31.75l11.457-6.615v31.75z" fill="#e6e6e6" fill-rule="evenodd" stroke-linecap="round" stroke-linejoin="round"/><path d="M26.35 46.964v31.75L9.166 68.792v-31.75z" fill="#f7f7f7" fill-rule="evenodd" stroke-linecap="round" stroke-linejoin="round"/><path d="M26.35 46.964l4.583-2.646-17.185-9.922-4.583 2.646z" fill="none" stroke-linecap="round" stroke-linejoin="round"/><g fill-rule="evenodd" stroke-linecap="round" stroke-linejoin="round"><path d="M37.807 40.349l-6.874 3.969V36.38l6.874-3.969z" fill="#a40"/><path d="M30.933 44.318l-17.185-9.922v-7.938l17.185 9.922z" fill="#d45500"/><path d="M30.933 36.38l-17.185-9.922 6.874-3.968 17.185 9.921z" fill="#ff7f2a"/></g><path d="M59.575 17.198L41.245 6.615l-1.146-.662L34.37 9.26l20.623 10.584z" fill="#adb4c0" fill-rule="evenodd" stroke-linecap="round" stroke-linejoin="round"/><path d="M32.079 79.375v-2.117l1.146-.661v2.117zm2.979-1.72V75.54l1.145-.662v2.117zm4.582-1.323v-2.116l1.146-.662v2.117zm2.292-1.322v-2.117l1.146-.662v2.117zm3.437-3.308v-2.117l1.146-.661v2.117zm3.437-1.984V67.6l1.146-.661v2.116zm2.979-1.72V65.88l1.145-.661v2.116zm3.895-.926v-2.117l1.146-.661v2.116zm2.291-1.323v-2.117l1.146-.661v2.116zm3.667-3.439v-2.117l1.145-.662v2.117z" fill="#1a1a1a" fill-rule="evenodd" stroke-linecap="round" stroke-linejoin="round"/><path d="M59.575 60.854v-.264l12.374-7.144v.264z" fill="#e6e6e6" fill-rule="evenodd"/><path d="M65.075 60.325v-2.117l1.145-.661v2.117z" fill="#1a1a1a" fill-rule="evenodd" stroke-linecap="round" stroke-linejoin="round"/><path d="M26.35 80.036v-.264l12.603-7.276v.264z" fill="#e6e6e6" fill-rule="evenodd"/><path d="M19.477 76.068v-.265l6.874 3.969v.264z" fill="#f7f7f7" fill-rule="evenodd"/><path d="M26.35 79.772l-6.873-3.969 1.145-.661 5.729 3.307zm0 0l12.603-7.276-1.146-.662-11.456 6.615z" fill="#fff" fill-rule="evenodd" stroke-linecap="round" stroke-linejoin="round"/><path d="M43.536 35.719l11.457-6.615V15.875L43.536 22.49z" fill="#520" fill-rule="evenodd" stroke-linecap="round" stroke-linejoin="round"/><path d="M43.536 26.458L25.205 15.875v-3.969l18.33 10.584z" fill="#d45500" fill-rule="evenodd"/><path d="M26.35 79.772v-1.058l12.603-7.277v1.059z" fill-opacity=".197" fill-rule="evenodd" stroke-opacity=".913"/><path d="M26.35 79.772v-1.058l-6.873-3.97v1.06z" fill-opacity=".197" fill-rule="evenodd"/><path d="M19.477 75.803v-1.058l1.145-.662v1.059z" fill-opacity=".197" fill-rule="evenodd" stroke-opacity=".913"/><path d="M27.496 75.406v1.852l1.146-.661v-1.852zm1.146-.661v2.381l1.146-.661v-2.382zm1.146-.662v1.852l1.145-.661v-1.852z" fill="#1a1a1a" fill-rule="evenodd"/><g fill="#1a1a1a" fill-rule="evenodd"><path d="M32.079 72.76v1.853l1.146-.662v-1.852zm1.146-.661v2.381l1.145-.661v-2.381z"/><path d="M34.37 71.437v1.853l1.146-.662v-1.852z"/></g><path d="M36.203 70.38v1.851l1.146-.661v-1.852z" fill="#1a1a1a" fill-rule="evenodd"/><g fill="#1a1a1a" fill-rule="evenodd"><path d="M25.205 75.406v1.852l-1.146-.661v-1.852z"/><path d="M24.06 74.745v1.852l-1.146-.662v-1.852z"/><path d="M22.914 74.083v1.852l-1.146-.661v-1.852z"/></g><g fill="#1a1a1a" fill-rule="evenodd"><path d="M49.035 62.97v1.853l1.146-.662V62.31z"/><path d="M50.18 62.31v1.851l1.146-.661v-1.852zm1.146-.662V63.5l1.146-.661v-1.853z"/></g><g fill="#1a1a1a" fill-rule="evenodd"><path d="M60.95 56.092v1.852l1.146-.662V55.43z"/><path d="M62.096 55.43v2.381l1.146-.661v-2.381zm1.146-.661v1.852l1.145-.662v-1.852z"/></g><path d="M65.533 53.446v1.852l1.146-.662v-1.852zm1.146-.662v2.382l1.145-.662v-2.381zm1.145-.661v1.852l1.146-.661V51.46zM18.33 71.437v1.853l-1.145-.662v-1.852zm-1.145-.661v1.852l-1.145-.661v-1.852z" fill="#1a1a1a" fill-rule="evenodd"/><path d="M14.894 71.834l-1.146.662-6.874-3.969 2.291-1.323v1.323z" fill="#fff" fill-rule="evenodd"/><path d="M13.748 72.496v-1.059L6.874 67.47v1.058z" fill-opacity=".197" fill-rule="evenodd"/><path d="M13.748 72.496v-1.059l1.146-.661v1.058zm-6.874-3.969V67.47l2.291-1.323v1.058z" fill-opacity=".197" fill-rule="evenodd" stroke-opacity=".913"/><path d="M13.748 68.792v1.852l-1.146-.662V68.13zm-1.146-.662v1.852l-1.145-.661v-1.852zm-1.145-.661v1.852l-1.146-.662v-1.852zm47.66-14.288v1.852l1.146-.661V52.52z" fill="#1a1a1a" fill-rule="evenodd"/><path d="M71.949 49.477l-2.063-1.19v-1.059l2.063 1.19z" fill-opacity=".212" fill-rule="evenodd"/><path d="M69.887 48.286v1.059L58.43 55.959l1.146.662 11.456-6.615.916-.529z" fill="#fff" fill-rule="evenodd" stroke-linecap="round" stroke-linejoin="round"/><g fill="#1a1a1a" fill-rule="evenodd"><path d="M43.994 61.912v1.853l1.146-.662v-1.852zm1.146-.661v1.852l1.145-.661V60.59z"/><path d="M46.285 60.59v1.852l1.146-.662v-1.852z"/></g><path d="M59.575 56.62v-1.058L71.95 48.42v1.058z" fill-opacity=".197" fill-rule="evenodd" stroke-opacity=".913"/><path d="M43.536 65.881l11.457-6.614-1.146-.662L42.39 65.22z" fill="#fff" fill-rule="evenodd" stroke-linecap="round" stroke-linejoin="round"/><path d="M43.536 65.881v-1.058l11.457-6.615v1.059z" fill-opacity=".197" fill-rule="evenodd" stroke-opacity=".913"/><path d="M43.536 66.146v-.265l11.457-6.614v.264zm16.039-9.261v-.264l12.374-7.144v.265zM26.35 76.068v-.265l12.603-7.276v.265z" fill="#e6e6e6" fill-rule="evenodd"/><path d="M19.477 72.099v-.265l6.874 3.97v.264z" fill="#f7f7f7" fill-rule="evenodd"/><path d="M26.35 75.803l-6.873-3.969 1.145-.661 5.729 3.307zm0 0l12.603-7.276-1.146-.661-11.456 6.614z" fill="#fff" fill-rule="evenodd" stroke-linecap="round" stroke-linejoin="round"/><path d="M26.35 75.803v-1.058l12.603-7.276v1.058z" fill-opacity=".197" fill-rule="evenodd" stroke-opacity=".913"/><path d="M26.35 75.803v-1.058l-6.873-3.969v1.058z" fill-opacity=".197" fill-rule="evenodd"/><path d="M19.477 71.834v-1.058l1.145-.661v1.058z" fill-opacity=".197" fill-rule="evenodd" stroke-opacity=".913"/><path d="M27.496 71.438v1.852l1.146-.662v-1.852zm1.146-.662v2.381l1.146-.661v-2.381zm1.146-.661v1.852l1.145-.662v-1.852z" fill="#1a1a1a" fill-rule="evenodd"/><g fill="#1a1a1a" fill-rule="evenodd"><path d="M32.079 68.792v1.852l1.146-.662V68.13zm1.146-.662v2.381l1.145-.661v-2.381z"/><path d="M34.37 67.469v1.852l1.146-.662v-1.852z"/></g><path d="M36.203 66.41v1.852l1.146-.661v-1.852z" fill="#1a1a1a" fill-rule="evenodd"/><g fill="#1a1a1a" fill-rule="evenodd"><path d="M25.205 71.438v1.852l-1.146-.662v-1.852z"/><path d="M24.06 70.776v1.852l-1.146-.661v-1.852z"/><path d="M22.914 70.115v1.852l-1.146-.662v-1.852z"/></g><g fill="#1a1a1a" fill-rule="evenodd"><path d="M49.035 59.002v1.852l1.146-.661V58.34z"/><path d="M50.18 58.34v1.853l1.146-.662V57.68zm1.146-.66v1.851l1.146-.661v-1.852z"/></g><g fill="#1a1a1a" fill-rule="evenodd"><path d="M60.95 52.123v1.852l1.146-.661V51.46z"/><path d="M62.096 51.461v2.382l1.146-.662V50.8zm1.146-.661v1.852l1.145-.661v-1.852z"/></g><path d="M65.533 49.477v1.852l1.146-.661v-1.852zm1.146-.661v2.38l1.145-.66v-2.382zm1.145-.662v1.852l1.146-.661v-1.852zM18.33 67.469v1.852l-1.145-.662v-1.852zm-1.145-.662v1.852l-1.145-.661v-1.852z" fill="#1a1a1a" fill-rule="evenodd"/><path d="M14.894 67.866l-1.146.661-6.874-3.969 2.291-1.323v1.323z" fill="#fff" fill-rule="evenodd"/><path d="M13.748 68.527V67.47L6.874 63.5v1.058z" fill-opacity=".197" fill-rule="evenodd"/><path d="M13.748 68.527V67.47l1.146-.662v1.059zm-6.874-3.969V63.5l2.291-1.323v1.058z" fill-opacity=".197" fill-rule="evenodd" stroke-opacity=".913"/><path d="M13.748 64.823v1.852l-1.146-.661V64.16zm-1.146-.662v1.853l-1.145-.662V63.5zm-1.145-.661v1.852l-1.146-.661v-1.852zm47.66-14.288v1.853l1.146-.662v-1.852z" fill="#1a1a1a" fill-rule="evenodd"/><path d="M71.949 45.508l-2.063-1.19v-1.059l2.063 1.191z" fill-opacity=".212" fill-rule="evenodd"/><path d="M69.887 44.318v1.058L58.43 51.991l1.146.661 11.456-6.615.916-.529z" fill="#fff" fill-rule="evenodd" stroke-linecap="round" stroke-linejoin="round"/><g fill="#1a1a1a" fill-rule="evenodd"><path d="M43.994 57.944v1.852l1.146-.662v-1.852zm1.146-.662v1.852l1.145-.661V56.62z"/><path d="M46.285 56.62v1.853l1.146-.662V55.96z"/></g><path d="M59.575 52.652v-1.058L71.95 44.45v1.058z" fill-opacity=".197" fill-rule="evenodd" stroke-opacity=".913"/><path d="M43.536 61.912l11.457-6.614-1.146-.662-11.457 6.615z" fill="#fff" fill-rule="evenodd" stroke-linecap="round" stroke-linejoin="round"/><path d="M43.536 61.912v-1.058l11.457-6.614v1.058z" fill-opacity=".197" fill-rule="evenodd" stroke-opacity=".913"/><path d="M43.536 62.177v-.265l11.457-6.614v.264zm16.039-9.26v-.265l12.374-7.144v.265zM26.35 72.099v-.265l12.603-7.276v.265z" fill="#e6e6e6" fill-rule="evenodd"/><path d="M19.477 68.13v-.264l6.874 3.968v.265z" fill="#f7f7f7" fill-rule="evenodd"/><path d="M26.35 71.834l-6.873-3.968 1.145-.662 5.729 3.307zm0 0l12.603-7.276-1.146-.661-11.456 6.614z" fill="#fff" fill-rule="evenodd" stroke-linecap="round" stroke-linejoin="round"/><path d="M26.35 71.834v-1.058L38.954 63.5v1.058z" fill-opacity=".197" fill-rule="evenodd" stroke-opacity=".913"/><path d="M26.35 71.834v-1.058l-6.873-3.969v1.059z" fill-opacity=".197" fill-rule="evenodd"/><path d="M19.477 67.866v-1.059l1.145-.661v1.058z" fill-opacity=".197" fill-rule="evenodd" stroke-opacity=".913"/><path d="M27.496 67.469v1.852l1.146-.662v-1.852zm1.146-.662v2.382l1.146-.662v-2.381zm1.146-.661v1.852l1.145-.662v-1.852z" fill="#1a1a1a" fill-rule="evenodd"/><g fill="#1a1a1a" fill-rule="evenodd"><path d="M32.079 64.823v1.852l1.146-.661V64.16zm1.146-.662v2.382l1.145-.662V63.5z"/><path d="M34.37 63.5v1.852l1.146-.661v-1.852z"/></g><path d="M36.203 62.442v1.852l1.146-.662V61.78z" fill="#1a1a1a" fill-rule="evenodd"/><g fill="#1a1a1a" fill-rule="evenodd"><path d="M25.205 67.469v1.852l-1.146-.662v-1.852z"/><path d="M24.06 66.807v1.852l-1.146-.661v-1.852z"/><path d="M22.914 66.146v1.852l-1.146-.662v-1.852z"/></g><g fill="#1a1a1a" fill-rule="evenodd"><path d="M49.035 55.033v1.852l1.146-.661v-1.852z"/><path d="M50.18 54.372v1.852l1.146-.661V53.71zm1.146-.662v1.853l1.146-.662v-1.852z"/></g><g fill="#1a1a1a" fill-rule="evenodd"><path d="M60.95 48.154v1.852l1.146-.661v-1.852z"/><path d="M62.096 47.493v2.38l1.146-.66V46.83zm1.146-.662v1.852l1.145-.661V46.17z"/></g><path d="M65.533 45.508v1.852l1.146-.661v-1.852zm1.146-.661v2.381l1.145-.661v-2.382zm1.145-.662v1.852l1.146-.661v-1.852zM18.33 63.5v1.852l-1.145-.661v-1.852zm-1.145-.661v1.852l-1.145-.662v-1.852z" fill="#1a1a1a" fill-rule="evenodd"/><path d="M14.894 63.897l-1.146.661-6.874-3.968 2.291-1.323v1.323z" fill="#fff" fill-rule="evenodd"/><path d="M13.748 64.558V63.5l-6.874-3.969v1.059z" fill-opacity=".197" fill-rule="evenodd"/><path d="M13.748 64.558V63.5l1.146-.661v1.058zM6.874 60.59v-1.06l2.291-1.323v1.059z" fill-opacity=".197" fill-rule="evenodd" stroke-opacity=".913"/><path d="M13.748 60.854v1.852l-1.146-.661v-1.852zm-1.146-.661v1.852l-1.145-.662v-1.852zm-1.145-.662v1.852l-1.146-.661V58.87zm47.66-14.287v1.852l1.146-.662v-1.852z" fill="#1a1a1a" fill-rule="evenodd"/><path d="M71.949 41.54l-2.063-1.191v-1.058l2.063 1.19z" fill-opacity=".212" fill-rule="evenodd"/><path d="M69.887 40.349v1.058L58.43 48.022l1.146.661 11.456-6.614.916-.53z" fill="#fff" fill-rule="evenodd" stroke-linecap="round" stroke-linejoin="round"/><g fill="#1a1a1a" fill-rule="evenodd"><path d="M43.994 53.975v1.852l1.146-.661v-1.852zm1.146-.661v1.852l1.145-.662v-1.852z"/><path d="M46.285 52.652v1.852l1.146-.661V51.99z"/></g><path d="M59.575 48.683v-1.058l12.374-7.144v1.059z" fill-opacity=".197" fill-rule="evenodd" stroke-opacity=".913"/><path d="M43.536 57.944l11.457-6.615-1.146-.661-11.457 6.614z" fill="#fff" fill-rule="evenodd" stroke-linecap="round" stroke-linejoin="round"/><path d="M43.536 57.944v-1.059l11.457-6.614v1.058z" fill-opacity=".197" fill-rule="evenodd" stroke-opacity=".913"/><path d="M43.536 58.208v-.264l11.457-6.615v.265zm16.039-9.26v-.265L71.95 41.54v.264zM26.35 68.13v-.264l12.603-7.276v.264z" fill="#e6e6e6" fill-rule="evenodd"/><path d="M19.477 64.161v-.264l6.874 3.969v.264z" fill="#f7f7f7" fill-rule="evenodd"/><path d="M26.35 67.866l-6.873-3.97 1.145-.66 5.729 3.307zm0 0l12.603-7.276-1.146-.662-11.456 6.615z" fill="#fff" fill-rule="evenodd" stroke-linecap="round" stroke-linejoin="round"/><path d="M26.35 67.866v-1.059l12.603-7.276v1.059z" fill-opacity=".197" fill-rule="evenodd" stroke-opacity=".913"/><path d="M26.35 67.866v-1.059l-6.873-3.968v1.058z" fill-opacity=".197" fill-rule="evenodd"/><path d="M19.477 63.897v-1.058l1.145-.662v1.058z" fill-opacity=".197" fill-rule="evenodd" stroke-opacity=".913"/><path d="M27.496 63.5v1.852l1.146-.661v-1.852zm1.146-.661v2.38l1.146-.66v-2.382zm1.146-.662v1.852l1.145-.661v-1.852z" fill="#1a1a1a" fill-rule="evenodd"/><g fill="#1a1a1a" fill-rule="evenodd"><path d="M32.079 60.854v1.852l1.146-.661v-1.852zm1.146-.661v2.381l1.145-.661V59.53z"/><path d="M34.37 59.531v1.852l1.146-.661V58.87z"/></g><path d="M36.203 58.473v1.852l1.146-.661V57.81z" fill="#1a1a1a" fill-rule="evenodd"/><g fill="#1a1a1a" fill-rule="evenodd"><path d="M25.205 63.5v1.852l-1.146-.661v-1.852z"/><path d="M24.06 62.839v1.852l-1.146-.662v-1.852z"/><path d="M22.914 62.177v1.852l-1.146-.661v-1.852z"/></g><g fill="#1a1a1a" fill-rule="evenodd"><path d="M49.035 51.065v1.852l1.146-.662v-1.852z"/><path d="M50.18 50.403v1.852l1.146-.661v-1.852zm1.146-.661v1.852l1.146-.662V49.08z"/></g><g fill="#1a1a1a" fill-rule="evenodd"><path d="M60.95 44.185v1.852l1.146-.661v-1.852z"/><path d="M62.096 43.524v2.381l1.146-.661v-2.382zm1.146-.662v1.853l1.145-.662v-1.852z"/></g><path d="M65.533 41.54v1.852l1.146-.662v-1.852zm1.146-.662v2.381l1.145-.661v-2.381zm1.145-.661v1.852l1.146-.662v-1.852zM18.33 59.531v1.852l-1.145-.661V58.87zm-1.145-.661v1.852l-1.145-.662v-1.852z" fill="#1a1a1a" fill-rule="evenodd"/><path d="M14.894 59.928l-1.146.662-6.874-3.97 2.291-1.322v1.323z" fill="#fff" fill-rule="evenodd"/><path d="M13.748 60.59v-1.06l-6.874-3.969v1.059z" fill-opacity=".197" fill-rule="evenodd"/><path d="M13.748 60.59v-1.06l1.146-.661v1.058zm-6.874-3.97v-1.058l2.291-1.322v1.058z" fill-opacity=".197" fill-rule="evenodd" stroke-opacity=".913"/><path d="M13.748 56.885v1.852l-1.146-.661v-1.852zm-1.146-.661v1.852l-1.145-.661v-1.853zm-1.145-.662v1.853l-1.146-.662v-1.852zm47.66-14.287v1.852l1.146-.661v-1.852z" fill="#1a1a1a" fill-rule="evenodd"/><path d="M71.949 37.57l-2.063-1.19v-1.058l2.063 1.19z" fill-opacity=".212" fill-rule="evenodd"/><path d="M69.887 36.38v1.059L58.43 44.053l1.146.662L71.032 38.1l.916-.53z" fill="#fff" fill-rule="evenodd" stroke-linecap="round" stroke-linejoin="round"/><g fill="#1a1a1a" fill-rule="evenodd"><path d="M43.994 50.006v1.852l1.146-.661v-1.852zm1.146-.661v1.852l1.145-.662v-1.852z"/><path d="M46.285 48.683v1.852l1.146-.661v-1.852z"/></g><path d="M59.575 44.715v-1.059l12.374-7.144v1.059z" fill-opacity=".197" fill-rule="evenodd" stroke-opacity=".913"/><path d="M43.536 53.975l11.457-6.615-1.146-.661-11.457 6.615z" fill="#fff" fill-rule="evenodd" stroke-linecap="round" stroke-linejoin="round"/><path d="M43.536 53.975v-1.058l11.457-6.615v1.058z" fill-opacity=".197" fill-rule="evenodd" stroke-opacity=".913"/><path d="M43.536 54.24v-.265l11.457-6.615v.265zm16.039-9.26v-.265L71.95 37.57v.264zM26.35 64.161v-.264l12.603-7.276v.264z" fill="#e6e6e6" fill-rule="evenodd"/><path d="M19.477 60.193v-.265l6.874 3.969v.264z" fill="#f7f7f7" fill-rule="evenodd"/><path d="M26.35 63.897l-6.873-3.969 1.145-.661 5.729 3.307zm0 0l12.603-7.276-1.146-.662-11.456 6.615z" fill="#fff" fill-rule="evenodd" stroke-linecap="round" stroke-linejoin="round"/><path d="M26.35 63.897v-1.058l12.603-7.277v1.059z" fill-opacity=".197" fill-rule="evenodd" stroke-opacity=".913"/><path d="M26.35 63.897v-1.058l-6.873-3.97v1.06z" fill-opacity=".197" fill-rule="evenodd"/><path d="M19.477 59.928V58.87l1.145-.662v1.059z" fill-opacity=".197" fill-rule="evenodd" stroke-opacity=".913"/><path d="M27.496 59.531v1.852l1.146-.661V58.87zm1.146-.661v2.381l1.146-.661v-2.382zm1.146-.662v1.852l1.145-.661v-1.852z" fill="#1a1a1a" fill-rule="evenodd"/><g fill="#1a1a1a" fill-rule="evenodd"><path d="M32.079 56.885v1.853l1.146-.662v-1.852zm1.146-.661v2.381l1.145-.661v-2.381z"/><path d="M34.37 55.562v1.853l1.146-.662v-1.852z"/></g><path d="M36.203 54.504v1.852l1.146-.661v-1.852z" fill="#1a1a1a" fill-rule="evenodd"/><g fill="#1a1a1a" fill-rule="evenodd"><path d="M25.205 59.531v1.852l-1.146-.661V58.87z"/><path d="M24.06 58.87v1.852l-1.146-.662v-1.852z"/><path d="M22.914 58.208v1.852l-1.146-.661v-1.852z"/></g><g fill="#1a1a1a" fill-rule="evenodd"><path d="M49.035 47.096v1.852l1.146-.662v-1.852z"/><path d="M50.18 46.434v1.852l1.146-.661v-1.852zm1.146-.661v1.852l1.146-.661V45.11z"/></g><g fill="#1a1a1a" fill-rule="evenodd"><path d="M60.95 40.217v1.852l1.146-.662v-1.852z"/><path d="M62.096 39.555v2.381l1.146-.661v-2.381zm1.146-.661v1.852l1.145-.662v-1.852z"/></g><path d="M65.533 37.57v1.853l1.146-.662V36.91zm1.146-.66v2.38l1.145-.66v-2.382zm1.145-.662V38.1l1.146-.661v-1.853zM18.33 55.562v1.853l-1.145-.662v-1.852zm-1.145-.661v1.852l-1.145-.661V54.24z" fill="#1a1a1a" fill-rule="evenodd"/><path d="M14.894 55.96l-1.146.66-6.874-3.968 2.291-1.323v1.323z" fill="#fff" fill-rule="evenodd"/><path d="M13.748 56.62v-1.058l-6.874-3.968v1.058z" fill-opacity=".197" fill-rule="evenodd"/><path d="M13.748 56.62v-1.058l1.146-.661v1.058zm-6.874-3.968v-1.058l2.291-1.323v1.058z" fill-opacity=".197" fill-rule="evenodd" stroke-opacity=".913"/><path d="M13.748 52.917v1.852l-1.146-.662v-1.852zm-1.146-.662v1.852l-1.145-.661v-1.852zm-1.145-.661v1.852l-1.146-.662v-1.852zm47.66-14.288v1.852l1.146-.661v-1.852z" fill="#1a1a1a" fill-rule="evenodd"/><path d="M71.949 33.602l-2.063-1.19v-1.059l2.063 1.19z" fill-opacity=".212" fill-rule="evenodd"/><path d="M69.887 32.411v1.059L58.43 40.084l1.146.662 11.456-6.615.916-.529z" fill="#fff" fill-rule="evenodd" stroke-linecap="round" stroke-linejoin="round"/><g fill="#1a1a1a" fill-rule="evenodd"><path d="M43.994 46.037v1.853l1.146-.662v-1.852zm1.146-.661v1.852l1.145-.661v-1.852z"/><path d="M46.285 44.715v1.852l1.146-.662v-1.852z"/></g><path d="M59.575 40.746v-1.059l12.374-7.143v1.058z" fill-opacity=".197" fill-rule="evenodd" stroke-opacity=".913"/><path d="M43.536 50.006l11.457-6.614-1.146-.662-11.457 6.615z" fill="#fff" fill-rule="evenodd" stroke-linecap="round" stroke-linejoin="round"/><path d="M43.536 50.006v-1.058l11.457-6.615v1.059z" fill-opacity=".197" fill-rule="evenodd" stroke-opacity=".913"/><path d="M43.536 50.27v-.264l11.457-6.614v.264zm16.039-9.26v-.264l12.374-7.144v.265zM26.35 60.193v-.265l12.603-7.276v.265z" fill="#e6e6e6" fill-rule="evenodd"/><path d="M19.477 56.224v-.265l6.874 3.97v.264z" fill="#f7f7f7" fill-rule="evenodd"/><path d="M26.35 59.928l-6.873-3.969 1.145-.661 5.729 3.307zm0 0l12.603-7.276-1.146-.661-11.456 6.614z" fill="#fff" fill-rule="evenodd" stroke-linecap="round" stroke-linejoin="round"/><path d="M26.35 59.928V58.87l12.603-7.276v1.058z" fill-opacity=".197" fill-rule="evenodd" stroke-opacity=".913"/><path d="M26.35 59.928V58.87l-6.872-3.97v1.058z" fill-opacity=".197" fill-rule="evenodd"/><path d="M19.477 55.96V54.9l1.145-.661v1.058z" fill-opacity=".197" fill-rule="evenodd" stroke-opacity=".913"/><path d="M27.496 55.563v1.852l1.146-.662v-1.852zm1.146-.662v2.381l1.146-.661V54.24zm1.146-.661v1.852l1.145-.662v-1.852z" fill="#1a1a1a" fill-rule="evenodd"/><g fill="#1a1a1a" fill-rule="evenodd"><path d="M32.079 52.917v1.852l1.146-.662v-1.852zm1.146-.662v2.381l1.145-.661v-2.381z"/><path d="M34.37 51.594v1.852l1.146-.662v-1.852z"/></g><path d="M36.203 50.535v1.852l1.146-.661v-1.852z" fill="#1a1a1a" fill-rule="evenodd"/><g fill="#1a1a1a" fill-rule="evenodd"><path d="M25.205 55.563v1.852l-1.146-.662v-1.852z"/><path d="M24.06 54.901v1.852l-1.146-.661V54.24z"/><path d="M22.914 54.24v1.852l-1.146-.662v-1.852z"/></g><g fill="#1a1a1a" fill-rule="evenodd"><path d="M49.035 43.127v1.852l1.146-.661v-1.852z"/><path d="M50.18 42.466v1.852l1.146-.662v-1.852zm1.146-.662v1.852l1.146-.661v-1.852z"/></g><g fill="#1a1a1a" fill-rule="evenodd"><path d="M60.95 36.248V38.1l1.146-.661v-1.853z"/><path d="M62.096 35.586v2.382l1.146-.662v-2.381zm1.146-.661v1.852l1.145-.661v-1.852z"/></g><path d="M65.533 33.602v1.852l1.146-.661V32.94zm1.146-.662v2.382l1.145-.662v-2.38zm1.145-.66v1.851l1.146-.661v-1.852zM18.33 51.594v1.852l-1.145-.662v-1.852zm-1.145-.662v1.852l-1.145-.661V50.27z" fill="#1a1a1a" fill-rule="evenodd"/><path d="M14.894 51.99l-1.146.662-6.874-3.969 2.291-1.323v1.323z" fill="#fff" fill-rule="evenodd"/><path d="M13.748 52.652v-1.058l-6.874-3.969v1.058z" fill-opacity=".197" fill-rule="evenodd"/><path d="M13.748 52.652v-1.058l1.146-.662v1.059zm-6.874-3.969v-1.058l2.291-1.323v1.058z" fill-opacity=".197" fill-rule="evenodd" stroke-opacity=".913"/><path d="M13.748 48.948V50.8l-1.146-.661v-1.853zm-1.146-.662v1.853l-1.145-.662v-1.852zm-1.145-.661v1.852l-1.146-.661v-1.852zm47.66-14.288v1.853l1.146-.662v-1.852z" fill="#1a1a1a" fill-rule="evenodd"/><path d="M71.949 29.633l-2.063-1.19v-1.059l2.063 1.191z" fill-opacity=".212" fill-rule="evenodd"/><path d="M69.887 28.443V29.5L58.43 36.116l1.146.661 11.456-6.615.916-.529z" fill="#fff" fill-rule="evenodd" stroke-linecap="round" stroke-linejoin="round"/><g fill="#1a1a1a" fill-rule="evenodd"><path d="M43.994 42.069v1.852l1.146-.662v-1.852zm1.146-.662v1.852l1.145-.661v-1.852z"/><path d="M46.285 40.746v1.852l1.146-.662v-1.852z"/></g><path d="M59.575 36.777V35.72l12.374-7.144v1.058z" fill-opacity=".197" fill-rule="evenodd" stroke-opacity=".913"/><path d="M43.536 46.037l11.457-6.614-1.146-.662-11.457 6.615z" fill="#fff" fill-rule="evenodd" stroke-linecap="round" stroke-linejoin="round"/><path d="M43.536 46.037V44.98l11.457-6.614v1.058z" fill-opacity=".197" fill-rule="evenodd" stroke-opacity=".913"/><path d="M43.536 46.302v-.265l11.457-6.614v.264zm16.039-9.26v-.265l12.374-7.144v.265zM26.35 56.224v-.265l12.603-7.276v.265z" fill="#e6e6e6" fill-rule="evenodd"/><path d="M19.477 52.255v-.264l6.874 3.968v.265z" fill="#f7f7f7" fill-rule="evenodd"/><path d="M26.35 55.96l-6.873-3.97 1.145-.66 5.729 3.306zm0 0l12.603-7.277-1.146-.661-11.456 6.614z" fill="#fff" fill-rule="evenodd" stroke-linecap="round" stroke-linejoin="round"/><path d="M26.35 55.96V54.9l12.603-7.276v1.058z" fill-opacity=".197" fill-rule="evenodd" stroke-opacity=".913"/><path d="M26.35 55.96V54.9l-6.873-3.969v1.059z" fill-opacity=".197" fill-rule="evenodd"/><path d="M19.477 51.99v-1.058l1.145-.661v1.058z" fill-opacity=".197" fill-rule="evenodd" stroke-opacity=".913"/><path d="M27.496 51.594v1.852l1.146-.662v-1.852zm1.146-.662v2.382l1.146-.662v-2.381zm1.146-.662v1.853l1.145-.662V49.61z" fill="#1a1a1a" fill-rule="evenodd"/><g fill="#1a1a1a" fill-rule="evenodd"><path d="M32.079 48.948V50.8l1.146-.661v-1.853zm1.146-.662v2.382l1.145-.662v-2.381z"/><path d="M34.37 47.625v1.852l1.146-.661v-1.852z"/></g><path d="M36.203 46.567v1.852l1.146-.662v-1.852z" fill="#1a1a1a" fill-rule="evenodd"/><g fill="#1a1a1a" fill-rule="evenodd"><path d="M25.205 51.594v1.852l-1.146-.662v-1.852z"/><path d="M24.06 50.932v1.852l-1.146-.661V50.27z"/><path d="M22.914 50.27v1.853l-1.146-.662V49.61z"/></g><g fill="#1a1a1a" fill-rule="evenodd"><path d="M49.035 39.158v1.852l1.146-.661v-1.852z"/><path d="M50.18 38.497v1.852l1.146-.661v-1.853zm1.146-.662v1.853l1.146-.662v-1.852z"/></g><g fill="#1a1a1a" fill-rule="evenodd"><path d="M60.95 32.28v1.851l1.146-.661v-1.852z"/><path d="M62.096 31.618v2.381l1.146-.662v-2.38zm1.146-.662v1.852l1.145-.661v-1.852z"/></g><path d="M65.533 29.633v1.852l1.146-.661v-1.852zm1.146-.661v2.381l1.145-.661V28.31zm1.145-.662v1.853l1.146-.662v-1.852zM18.33 47.625v1.852l-1.145-.661v-1.852zm-1.145-.661v1.852l-1.145-.662v-1.852z" fill="#1a1a1a" fill-rule="evenodd"/><path d="M14.894 48.022l-1.146.661-6.874-3.968 2.291-1.323v1.323z" fill="#fff" fill-rule="evenodd"/><path d="M13.748 48.683v-1.058l-6.874-3.969v1.059z" fill-opacity=".197" fill-rule="evenodd"/><path d="M13.748 48.683v-1.058l1.146-.661v1.058zm-6.874-3.968v-1.059l2.291-1.323v1.059z" fill-opacity=".197" fill-rule="evenodd" stroke-opacity=".913"/><path d="M13.748 44.98v1.851l-1.146-.661v-1.852zm-1.146-.662v1.852l-1.145-.662v-1.852zm-1.145-.662v1.852l-1.146-.661v-1.852zm47.66-14.287v1.852l1.146-.662v-1.852z" fill="#1a1a1a" fill-rule="evenodd"/><path d="M71.949 25.665l-2.063-1.191v-1.058l2.063 1.19z" fill-opacity=".212" fill-rule="evenodd"/><path d="M69.887 24.474v1.058L58.43 32.147l1.146.661 11.456-6.614.916-.53z" fill="#fff" fill-rule="evenodd" stroke-linecap="round" stroke-linejoin="round"/><g fill="#1a1a1a" fill-rule="evenodd"><path d="M43.994 38.1v1.852l1.146-.661v-1.852zm1.146-.661v1.852l1.145-.662v-1.852z"/><path d="M46.285 36.777v1.852l1.146-.661v-1.852z"/></g><path d="M59.575 32.808V31.75l12.374-7.144v1.059z" fill-opacity=".197" fill-rule="evenodd" stroke-opacity=".913"/><path d="M43.536 42.069l11.457-6.615-1.146-.661-11.457 6.614z" fill="#fff" fill-rule="evenodd" stroke-linecap="round" stroke-linejoin="round"/><path d="M43.536 42.069V41.01l11.457-6.614v1.058z" fill-opacity=".197" fill-rule="evenodd" stroke-opacity=".913"/><path d="M43.536 42.333v-.264l11.457-6.615v.265zm16.039-9.26v-.265l12.374-7.143v.264zM26.35 52.255v-.264l12.603-7.276v.264z" fill="#e6e6e6" fill-rule="evenodd"/><path d="M19.477 48.286v-.264l6.874 3.969v.264z" fill="#f7f7f7" fill-rule="evenodd"/><path d="M26.35 51.99l-6.873-3.968 1.145-.662 5.729 3.308zm0 0l12.603-7.275-1.146-.662-11.456 6.615z" fill="#fff" fill-rule="evenodd" stroke-linecap="round" stroke-linejoin="round"/><path d="M26.35 51.99v-1.058l12.603-7.276v1.059z" fill-opacity=".197" fill-rule="evenodd" stroke-opacity=".913"/><path d="M26.35 51.99v-1.058l-6.873-3.968v1.058z" fill-opacity=".197" fill-rule="evenodd"/><path d="M19.477 48.022v-1.058l1.145-.662v1.058z" fill-opacity=".197" fill-rule="evenodd" stroke-opacity=".913"/><path d="M27.496 47.625v1.852l1.146-.661v-1.852zm1.146-.661v2.38l1.146-.66v-2.382zm1.146-.662v1.852l1.145-.661V45.64z" fill="#1a1a1a" fill-rule="evenodd"/><g fill="#1a1a1a" fill-rule="evenodd"><path d="M32.079 44.98v1.851l1.146-.661v-1.852zm1.146-.662v2.381l1.145-.661v-2.382z"/><path d="M34.37 43.656v1.852l1.146-.661v-1.852z"/></g><path d="M36.203 42.598v1.852l1.146-.661v-1.853z" fill="#1a1a1a" fill-rule="evenodd"/><g fill="#1a1a1a" fill-rule="evenodd"><path d="M25.205 47.625v1.852l-1.146-.661v-1.852z"/><path d="M24.06 46.964v1.852l-1.146-.662v-1.852z"/><path d="M22.914 46.302v1.852l-1.146-.661V45.64z"/></g><g fill="#1a1a1a" fill-rule="evenodd"><path d="M49.035 35.19v1.852l1.146-.662v-1.852z"/><path d="M50.18 34.528v1.852l1.146-.661v-1.852zm1.146-.661v1.852l1.146-.662v-1.852z"/></g><g fill="#1a1a1a" fill-rule="evenodd"><path d="M60.95 28.31v1.853l1.146-.662v-1.852z"/><path d="M62.096 27.649v2.381l1.146-.661v-2.382zm1.146-.662v1.853l1.145-.662v-1.852z"/></g><path d="M65.533 25.665v1.852l1.146-.662v-1.852zm1.146-.662v2.381l1.145-.661v-2.381zm1.145-.661v1.852l1.146-.662V23.68zM18.33 43.656v1.852l-1.145-.661v-1.852zm-1.145-.661v1.852l-1.145-.662v-1.852z" fill="#1a1a1a" fill-rule="evenodd"/><path d="M14.894 44.053l-1.146.662-6.874-3.97 2.291-1.322v1.323z" fill="#fff" fill-rule="evenodd"/><path d="M13.748 44.715v-1.059l-6.874-3.968v1.058z" fill-opacity=".197" fill-rule="evenodd"/><path d="M13.748 44.715v-1.059l1.146-.661v1.058zm-6.874-3.969v-1.058l2.291-1.323v1.058z" fill-opacity=".197" fill-rule="evenodd" stroke-opacity=".913"/><path d="M13.748 41.01v1.852l-1.146-.661v-1.852zm-1.146-.661V42.2l-1.145-.661v-1.853zm-1.145-.662v1.853l-1.146-.662v-1.852z" fill="#1a1a1a" fill-rule="evenodd"/><path d="M38.953 72.76V29.104l4.583-2.646v43.657z" fill="#535d6c" fill-rule="evenodd" stroke-linecap="round" stroke-linejoin="round"/><g fill="#1a1a1a" fill-rule="evenodd"><path d="M45.14 31.618v1.852l1.145-.662v-1.852z"/><path d="M46.285 30.956v1.852l1.146-.661v-1.852zm1.146-.661v1.852l1.146-.662v-1.852z"/></g><path d="M50.18 28.707v1.852l1.146-.661v-1.852zm1.146-.661v1.852l1.146-.662v-1.852zm1.146-.662v1.852l1.146-.661v-1.852z" fill="#1a1a1a" fill-rule="evenodd"/><g fill="#1a1a1a" fill-rule="evenodd"><path d="M45.14 27.649V29.5l1.145-.661v-1.853z"/><path d="M46.285 26.987v1.853l1.146-.662v-1.852zm1.146-.661v1.852l1.146-.661v-1.852z"/></g><path d="M50.18 24.739v1.852l1.146-.662v-1.852zm1.146-.662v1.852l1.146-.661v-1.852zm1.146-.661v1.852l1.146-.662v-1.852z" fill="#1a1a1a" fill-rule="evenodd"/><g fill="#1a1a1a" fill-rule="evenodd"><path d="M45.14 23.68v1.852l1.145-.661v-1.852z"/><path d="M46.285 23.019v1.852l1.146-.662v-1.852zm1.146-.662v1.852l1.146-.661v-1.852z"/></g><path d="M50.18 20.77v1.852l1.146-.662v-1.852zm1.146-.662v1.852l1.146-.661v-1.852zm1.146-.661v1.852l1.146-.661v-1.853zm-23.83 20.902v1.852l-1.146-.661v-1.852zm-1.146-.661v2.645l-1.145-.661v-2.646zm-1.146-.662v1.852l-1.145-.661v-1.852z" fill="#1a1a1a" fill-rule="evenodd"/><g fill="#1a1a1a" fill-rule="evenodd"><path d="M24.06 37.703v1.852l-1.146-.661v-1.852z"/><path d="M22.914 37.042v2.645l-1.146-.661V36.38zm-1.146-.662v1.852l-1.146-.661v-1.852z"/></g><path d="M19.477 35.057v1.852l-1.146-.661v-1.852zm-1.147-.661v2.646l-1.145-.662v-2.646zm-1.145-.662v1.852l-1.145-.661v-1.852zm11.457 2.646v1.852l-1.146-.661v-1.852zm-1.146-.661v1.852l-1.145-.662v-1.852zm-1.146-.662v1.852l-1.145-.661v-1.852z" fill="#1a1a1a" fill-rule="evenodd"/><g fill="#1a1a1a" fill-rule="evenodd"><path d="M24.06 33.734v1.852l-1.146-.661v-1.852z"/><path d="M22.914 33.073v1.852l-1.146-.661V32.41zm-1.146-.662v1.853l-1.146-.662V31.75z"/></g><path d="M19.477 31.089v1.852l-1.146-.662v-1.852zm-1.147-.662v1.852l-1.145-.661v-1.852zm-1.145-.661v1.852l-1.145-.662v-1.852z" fill="#1a1a1a" fill-rule="evenodd"/><path d="M26.35 46.964v-1.059l4.583-2.646v1.059z" fill-opacity=".197" fill-rule="evenodd" stroke-opacity=".913"/><path d="M26.35 46.964v-1.059L9.166 35.983v1.059z" fill-opacity=".197" fill-rule="evenodd"/><path d="M9.165 37.042v-1.059l4.583-2.645v1.058zm56.139-12.568v-1.058l4.582-2.646v1.058z" fill-opacity=".197" fill-rule="evenodd" stroke-opacity=".913"/><path d="M69.886 21.828l-4.582-2.646v-1.058l4.582 2.646z" fill-opacity=".212" fill-rule="evenodd"/><g fill="#1a1a1a" fill-rule="evenodd"><path d="M34.829 35.454v1.852l1.145-.661v-1.852z"/><path d="M35.974 34.793v1.852l1.146-.662v-1.852z"/></g><path d="M31.62 37.306v1.852l1.146-.661v-1.852zm1.146-.661v1.852l1.146-.662v-1.852z" fill="#1a1a1a" fill-rule="evenodd"/><g fill="#1a1a1a" fill-rule="evenodd"><path d="M34.829 39.423v1.852l1.145-.661V38.76z"/><path d="M35.974 38.761v1.853l1.146-.662V38.1z"/></g><path d="M31.62 41.275v1.852l1.146-.661v-1.852zm1.146-.661v1.852l1.146-.662v-1.852z" fill="#1a1a1a" fill-rule="evenodd"/><g fill="#1a1a1a" fill-rule="evenodd"><path d="M62.325 19.58v1.851l1.146-.661v-1.852z"/><path d="M63.47 18.918v1.852l1.146-.662v-1.852z"/></g><path d="M59.117 21.431v1.852l1.146-.661V20.77zm1.146-.661v1.852l1.145-.662v-1.852z" fill="#1a1a1a" fill-rule="evenodd"/><g fill="#1a1a1a" fill-rule="evenodd"><path d="M62.325 23.548V25.4l1.146-.661v-1.853z"/><path d="M63.47 22.886v1.853l1.146-.662v-1.852z"/></g><path d="M59.117 25.4v1.852l1.146-.661v-1.852zm1.146-.661v1.852l1.145-.662v-1.852z" fill="#1a1a1a" fill-rule="evenodd"/><path d="M54.993 63.5V19.844l4.582-2.646v43.656z" fill="#535d6c" fill-rule="evenodd" stroke-linecap="round" stroke-linejoin="round"/><path d="M30.933 36.38v-1.058L13.748 25.4v1.058z" fill-opacity=".197" fill-rule="evenodd"/><path d="M30.933 36.38v-1.058l6.874-3.969v1.058zm-17.185-9.922V25.4l6.874-3.969v1.059z" fill-opacity=".197" fill-rule="evenodd" stroke-opacity=".913"/><path d="M20.622 18.52l4.583-2.645 1.146.661 17.185 9.922-4.583 2.646z" fill="#adb4c0" fill-rule="evenodd" stroke-linecap="round" stroke-linejoin="round"/><g fill="#1a1a1a" fill-rule="evenodd"><path d="M35.516 28.443v1.852l-1.146-.662v-1.852zm-1.146-.662v2.646l-1.145-.661V27.12z"/><path d="M33.225 27.12v1.852l-1.146-.662v-1.852z"/></g><path d="M30.933 25.797v1.852l-1.145-.661v-1.853zm-1.145-.662v2.646l-1.146-.661v-2.646zm-1.146-.661v1.852l-1.146-.661v-1.852z" fill="#1a1a1a" fill-rule="evenodd"/><g fill="#1a1a1a" fill-rule="evenodd"><path d="M26.35 23.151v1.852l-1.145-.661V22.49zm-1.145-.661v2.645l-1.146-.661v-2.646z"/><path d="M24.06 21.828v1.852l-1.146-.661v-1.852z"/></g><path d="M38.953 29.104v-1.058l-18.33-10.583v1.058z" fill-opacity=".197" fill-rule="evenodd"/><path d="M38.953 29.104v-1.058l4.583-2.646v1.058zM20.622 18.52v-1.057l4.583-2.646v1.058z" fill-opacity=".197" fill-rule="evenodd" stroke-opacity=".913"/><g fill="#1a1a1a" fill-rule="evenodd"><path d="M40.099 21.828v1.852l-1.146-.661v-1.852z"/><path d="M38.953 21.167v2.646l-1.146-.662v-2.646zm-1.146-.662v1.852l-1.145-.661v-1.852z"/></g><g fill="#1a1a1a" fill-rule="evenodd"><path d="M35.516 19.182v1.852l-1.146-.661V18.52zm-1.146-.662v2.647l-1.145-.662V17.86z"/><path d="M33.225 17.86v1.851l-1.146-.661v-1.852z"/></g><path d="M30.933 16.536v1.853l-1.145-.662v-1.852zm-1.145-.661v2.646l-1.146-.662v-2.645zm-1.146-.661v1.852l-1.146-.662v-1.852zm13.519 7.805v1.852l-1.146-.662v-1.852z" fill="#1a1a1a" fill-rule="evenodd"/><path d="M54.993 19.844v-1.059l4.582-2.645v1.058z" fill-opacity=".197" fill-rule="evenodd" stroke-opacity=".913"/><path d="M59.575 17.198V16.14L40.1 4.895v1.058z" fill-opacity=".197" fill-rule="evenodd"/><path d="M35.516 8.599V7.541L40.1 4.895v1.058z" fill-opacity=".197" fill-rule="evenodd" stroke-opacity=".913"/><path d="M54.993 15.875L36.662 5.292l-11.457 6.614 18.33 10.584z" fill="#ff7f2a" fill-rule="evenodd" stroke-linecap="round" stroke-linejoin="round"/><path d="M65.304 16.536v-1.058L46.973 4.895v1.058z" fill-opacity=".197" fill-rule="evenodd"/><path d="M59.575 19.844v-1.059l5.729-3.307v1.058z" fill-opacity=".197" fill-rule="evenodd" stroke-opacity=".913"/></g></svg>